# xmcd
#
# Track frame offsets: 
#        200
#        15875
#        30725
#        49100
#        62900
#        72950
#        85175
#        100400
#        113375
#        128825
#        143975
#        156500
#        167150
#
# Disc length: 2422 seconds
#
# Revision: 2
# Processed by: cddbd v1.5.2PL0 Copyright (c) Steve Scherf et al.
# Submitted via: ExactAudioCopy v0.99pb3
#
DISCID=aa09740d
DTITLE=John Hammond - You Can't Judge A Book By The Cover
DYEAR=1993
DGENRE=Blues
TTITLE0=You Can't Judge A Book By The Cover
TTITLE1=I Can't Be Satisfied
TTITLE2=Midnight Hour Blues
TTITLE3=I Hate To See You Go
TTITLE4=My Babe
TTITLE5=Shake For Me
TTITLE6=Long Distance Call
TTITLE7=My Starter Won't Start
TTITLE8=Southbound Blues
TTITLE9=I'm Leavin' You
TTITLE10=I Live The Life I Love
TTITLE11=Help Me
TTITLE12=Gamblin Blues
EXTD=Vanguard\n\nVCD-479472
EXTT0=
EXTT1=
EXTT2=
EXTT3=
EXTT4=
EXTT5=
EXTT6=
EXTT7=
EXTT8=
EXTT9=
EXTT10=
EXTT11=
EXTT12=
PLAYORDER=
